<?xml version="1.0" encoding="utf-8" ?>
<svg id="Layer_1" data-name="Layer 1"
	xmlns="http://www.w3.org/2000/svg" viewBox="0 0 48.54 50.08">
	<defs>
		<style>
			.cls-1{fill:#3690ce;}
			.cls-2{fill:#fff;}
			.cls-3, .cls-5{fill:#fff;}
			.cls-4{fill:#2f2e35;opacity:0.2;}
			.cls-5{opacity:0.15;}
		</style>
	</defs>
	<title>ITAD-rocket-color-bgBlack-RGB</title>
	<polyline class="cls-1" points="21.58 47.55 21.58 37.24 11.27 26.93 0.95 26.93 27.88 0"/>
	<path class="cls-2" d="M27.88,0,1,26.93H11.27L21.58,37.24V47.55L48.51,20.62V0ZM37.1,14.22a3,3,0,1,1,3.17-2.86A3,3,0,0,1,37.1,14.22Z"/>
	<polygon class="cls-3" points="17.9 37.51 11.05 30.66 0 48.56 17.9 37.51"/>
	<polyline class="cls-4" points="48.51 20.63 21.58 47.55 21.58 37.24"/>
	<polygon class="cls-5" points="11.27 26.93 0.95 26.93 27.88 0 11.27 26.93"/>

	<path fill="#aaaaaa" d="M 42.5 40 c 1.6546 0 3 -1.3453 3 -3 V 29.5 c 0 -1.6546 -1.3453 -3 -3 -3 H 36.9922 c -0.7969 0 -1.5609 -0.3141 -2.1234 -0.8765 L 33.6265 24.3766 c -0.5625 -0.5625 -1.3266 -0.8765 -2.1234 -0.8765 H 26 c -1.6546 0 -3 1.3453 -3 3 V 37 c 0 1.6546 1.3453 3 3 3 H 42.5 z M 20.75 27.625 c 0 -0.6235 -0.5015 -1.125 -1.125 -1.125 S 18.5 27.0016 18.5 27.625 V 38.125 c 0 3.5203 2.8546 6.375 6.375 6.375 H 39.875 c 0.6235 0 1.125 -0.5015 1.125 -1.125 s -0.5015 -1.125 -1.125 -1.125 H 24.875 c -2.2781 0 -4.125 -1.8469 -4.125 -4.125 V 27.625 z" />
</svg>